# xmcd
#
# Track frame offsets:
# 150
# 17943
# 37950
# 55878
# 78936
# 95757
# 111282
# 131343
# 150054
# 171249
# 186315
# 203271
# 226734
# 247227
# 266397
# 289428
# 304278
#
# Disc length: 4251 seconds
#
#
# Revision: 0
# Processed by: cddbd v1.5.1PL0 Copyright (c) Steve Scherf et al.
# Submitted via: FreeRIP 2.941 
#
DISCID=e1109911
DTITLE=VACILOS - VACILOS
DYEAR=1900
DGENRE=
TTITLE0=mi primer millon
TTITLE1=CARALUNA
TTITLE2=solo UN SEGUNDO
TTITLE3=viejo
TTITLE4=odio el silencio
TTITLE5=nada especial
TTITLE6=barcelona
TTITLE7=el edificio
TTITLE8=nada
TTITLE9=elena
TTITLE10=sueña
TTITLE11=tabaco y  chanel
TTITLE12=machados de amor
TTITLE13=soledad
TTITLE14=cuestion de madera
TTITLE15=lo mismo que yo
TTITLE16=mas alla
EXTD=
EXTT0=
EXTT1=
EXTT2=
EXTT3=
EXTT4=
EXTT5=
EXTT6=
EXTT7=
EXTT8=
EXTT9=
EXTT10=
EXTT11=
EXTT12=
EXTT13=
EXTT14=
EXTT15=
EXTT16=
PLAYORDER=
